<svg width="54" height="54" viewBox="0 0 54 54" fill="none" xmlns="http://www.w3.org/2000/svg">
<path d="M16.0039 45.5414L16.9218 47.3183L16.0039 45.5414ZM16.8557 45.5056L16.1064 47.3599L16.8557 45.5056ZM4.10982 49.7951L6.03745 50.3282L4.10982 49.7951ZM5.53256 50.9501L4.61471 49.1732L5.53256 50.9501ZM6.86527 38.2013L5.31197 39.4612L6.86527 38.2013ZM7.06243 39.1193L5.1348 38.5862L7.06243 39.1193ZM50 24.7273C50 35.9995 39.8862 45.4545 27 45.4545V49.4545C41.728 49.4545 54 38.5589 54 24.7273H50ZM27 4C39.8862 4 50 13.455 50 24.7273H54C54 10.8957 41.728 0 27 0V4ZM4 24.7273C4 13.455 14.1138 4 27 4V0C12.272 0 0 10.8957 0 24.7273H4ZM8.41858 36.9414C5.62811 33.501 4 29.2793 4 24.7273H0C0 30.2628 1.98648 35.3611 5.31197 39.4612L8.41858 36.9414ZM5.1348 38.5862L2.18218 49.262L6.03745 50.3282L8.99007 39.6524L5.1348 38.5862ZM6.4504 52.7271L16.9218 47.3183L15.0861 43.7644L4.61471 49.1732L6.4504 52.7271ZM27 45.4545C23.6464 45.4545 20.4681 44.8082 17.605 43.6513L16.1064 47.3599C19.4437 48.7085 23.1306 49.4545 27 49.4545V45.4545ZM16.9218 47.3183C16.6515 47.4579 16.3529 47.4596 16.1064 47.3599L17.605 43.6513C16.8064 43.3286 15.8854 43.3515 15.0861 43.7644L16.9218 47.3183ZM2.18218 49.262C1.48459 51.7842 4.12529 53.9281 6.4504 52.7271L4.61471 49.1732C5.38975 48.7728 6.26998 49.4875 6.03745 50.3282L2.18218 49.262ZM5.31197 39.4612C5.12939 39.236 5.04416 38.9139 5.1348 38.5862L8.99007 39.6524C9.25733 38.6861 9.01854 37.6812 8.41858 36.9414L5.31197 39.4612Z" fill="black"/>
</svg>
